<svg xmlns="http://www.w3.org/2000/svg" width="850" height="180" viewBox="0 0 850 180">
  <defs>
    <style>
      /* Pac-Man chomp animation */
      @keyframes chomp {
        0%, 100% { d: path('M 0,-12 A 12,12 0 1,1 0,12 A 12,12 0 1,1 0,-12'); }
        50% { d: path('M 12,0 L 0,-12 A 12,12 0 1,1 0,12 Z'); }
      }
      @keyframes chompSimple {
        0%, 100% { transform: scaleX(1); }
        50% { transform: scaleX(0.9); }
      }
      
      /* Pac-Man movement */
      @keyframes pacmanMove {
        0% { transform: translateX(0); }
        25% { transform: translateX(40px); }
        50% { transform: translateX(80px); }
        75% { transform: translateX(40px); }
        100% { transform: translateX(0); }
      }
      
      /* Ghost floating */
      @keyframes ghostFloat {
        0%, 100% { transform: translateY(0); }
        50% { transform: translateY(-4px); }
      }
      
      /* Ghost movement patterns */
      @keyframes blinkyMove {
        0%, 100% { transform: translateX(0); }
        50% { transform: translateX(-30px); }
      }
      @keyframes pinkyMove {
        0%, 100% { transform: translateX(0); }
        33% { transform: translateX(25px); }
        66% { transform: translateX(-15px); }
      }
      @keyframes inkyMove {
        0%, 100% { transform: translateY(0); }
        50% { transform: translateY(-20px); }
      }
      @keyframes clydeMove {
        0%, 100% { transform: translate(0, 0); }
        50% { transform: translate(-20px, 10px); }
      }
      
      /* Power pellet pulse */
      @keyframes powerPulse {
        0%, 100% { transform: scale(1); opacity: 1; }
        50% { transform: scale(1.3); opacity: 0.7; }
      }
      
      /* Pellet glow */
      @keyframes pelletGlow {
        0%, 100% { opacity: 0.8; }
        50% { opacity: 1; }
      }
      
      /* Eye movement */
      @keyframes eyeMove {
        0%, 100% { transform: translateX(0); }
        25% { transform: translateX(2px); }
        75% { transform: translateX(-2px); }
      }
      
      .pacman-group { animation: pacmanMove 4s ease-in-out infinite; }
      .pacman-body { animation: chompSimple 0.3s ease-in-out infinite; }
      .ghost { animation: ghostFloat 1s ease-in-out infinite; }
      .ghost-blinky { animation: ghostFloat 1s ease-in-out infinite, blinkyMove 3s ease-in-out infinite; }
      .ghost-pinky { animation: ghostFloat 1.2s ease-in-out infinite, pinkyMove 4s ease-in-out infinite; }
      .ghost-inky { animation: ghostFloat 0.8s ease-in-out infinite, inkyMove 2.5s ease-in-out infinite; }
      .ghost-clyde { animation: ghostFloat 1.1s ease-in-out infinite, clydeMove 3.5s ease-in-out infinite; }
      .power-pellet { animation: powerPulse 1s ease-in-out infinite; }
      .ghost-eyes { animation: eyeMove 2s ease-in-out infinite; }
    </style>
    
    <!-- Glow filters -->
    <filter id="pacmanGlow">
      <feGaussianBlur stdDeviation="3" result="coloredBlur"/>
      <feMerge>
        <feMergeNode in="coloredBlur"/>
        <feMergeNode in="SourceGraphic"/>
      </feMerge>
    </filter>
    
    <filter id="ghostGlow">
      <feGaussianBlur stdDeviation="2" result="coloredBlur"/>
      <feMerge>
        <feMergeNode in="coloredBlur"/>
        <feMergeNode in="SourceGraphic"/>
      </feMerge>
    </filter>
    
    <filter id="powerGlow">
      <feGaussianBlur stdDeviation="4" result="coloredBlur"/>
      <feMerge>
        <feMergeNode in="coloredBlur"/>
        <feMergeNode in="SourceGraphic"/>
      </feMerge>
    </filter>
  </defs>
  
  <!-- Background -->
  <rect width="850" height="180" fill="#ffffff" rx="6"/>
  
  <!-- Month Labels -->
  <g class="month-labels" fill="#57606a" font-family="monospace" font-size="10">
    <text x="70" y="22">Jan</text>
    <text x="130.66666666666666" y="22">Feb</text>
    <text x="191.33333333333331" y="22">Mar</text>
    <text x="252" y="22">Apr</text>
    <text x="312.66666666666663" y="22">May</text>
    <text x="373.3333333333333" y="22">Jun</text>
    <text x="434" y="22">Jul</text>
    <text x="494.6666666666667" y="22">Aug</text>
    <text x="555.3333333333333" y="22">Sep</text>
    <text x="616" y="22">Oct</text>
    <text x="676.6666666666666" y="22">Nov</text>
    <text x="737.3333333333334" y="22">Dec</text>
  </g>
  
  <!-- Maze Walls -->
  <g class="maze-walls" stroke="#afb8c1" stroke-width="3" stroke-linecap="round">
    <line x1="35" y1="30" x2="793" y2="30"/>
    <line x1="35" y1="158" x2="793" y2="158"/>
    <line x1="35" y1="30" x2="35" y2="158"/>
    <line x1="793" y1="30" x2="793" y2="158"/>
    <line x1="130" y1="30" x2="130" y2="70"/>
    <line x1="230" y1="158" x2="230" y2="118"/>
    <line x1="330" y1="30" x2="330" y2="80"/>
    <line x1="430" y1="158" x2="430" y2="108"/>
    <line x1="530" y1="30" x2="530" y2="70"/>
    <line x1="630" y1="158" x2="630" y2="118"/>
    <line x1="730" y1="30" x2="730" y2="80"/>
  </g>
  
  <!-- Pellets (Contribution Squares) -->
  <g class="pellets">
    <rect x="50" y="45" width="11" height="11" rx="2" 
            fill="#30a14e" opacity="0.9"/>
    <rect x="50" y="59" width="11" height="11" rx="2" 
            fill="#30a14e" opacity="0.9"/>
    <rect x="50" y="73" width="11" height="11" rx="2" 
            fill="#40c463" opacity="1"/>
    <rect x="50" y="115" width="11" height="11" rx="2" 
            fill="#30a14e" opacity="0.9"/>
    <rect x="50" y="129" width="11" height="11" rx="2" 
            fill="#40c463" opacity="0.8"/>
    <rect x="64" y="45" width="11" height="11" rx="2" 
            fill="#40c463" opacity="1"/>
    <rect x="64" y="73" width="11" height="11" rx="2" 
            fill="#9be9a8" opacity="0.7"/>
    <rect x="64" y="115" width="11" height="11" rx="2" 
            fill="#40c463" opacity="0.8"/>
    <rect x="78" y="45" width="11" height="11" rx="2" 
            fill="#40c463" opacity="0.8"/>
    <rect x="78" y="59" width="11" height="11" rx="2" 
            fill="#40c463" opacity="1"/>
    <rect x="78" y="73" width="11" height="11" rx="2" 
            fill="#40c463" opacity="1"/>
    <rect x="78" y="87" width="11" height="11" rx="2" 
            fill="#30a14e" opacity="0.9"/>
    <rect x="78" y="101" width="11" height="11" rx="2" 
            fill="#40c463" opacity="1"/>
    <rect x="78" y="115" width="11" height="11" rx="2" 
            fill="#9be9a8" opacity="0.7"/>
    <rect x="78" y="129" width="11" height="11" rx="2" 
            fill="#40c463" opacity="0.8"/>
    <rect x="92" y="59" width="11" height="11" rx="2" 
            fill="#40c463" opacity="0.8"/>
    <rect x="92" y="73" width="11" height="11" rx="2" 
            fill="#40c463" opacity="1"/>
    <rect x="92" y="101" width="11" height="11" rx="2" 
            fill="#9be9a8" opacity="0.7"/>
    <rect x="92" y="129" width="11" height="11" rx="2" 
            fill="#9be9a8" opacity="0.7"/>
    <rect x="106" y="45" width="11" height="11" rx="2" 
            fill="#30a14e" opacity="0.9"/>
    <rect x="106" y="73" width="11" height="11" rx="2" 
            fill="#40c463" opacity="1"/>
    <rect x="106" y="87" width="11" height="11" rx="2" 
            fill="#40c463" opacity="0.8"/>
    <rect x="106" y="101" width="11" height="11" rx="2" 
            fill="#40c463" opacity="1"/>
    <rect x="106" y="115" width="11" height="11" rx="2" 
            fill="#40c463" opacity="0.8"/>
    <rect x="120" y="59" width="11" height="11" rx="2" 
            fill="#40c463" opacity="0.8"/>
    <rect x="120" y="87" width="11" height="11" rx="2" 
            fill="#9be9a8" opacity="0.7"/>
    <rect x="120" y="101" width="11" height="11" rx="2" 
            fill="#40c463" opacity="0.8"/>
    <rect x="120" y="115" width="11" height="11" rx="2" 
            fill="#40c463" opacity="0.8"/>
    <rect x="120" y="129" width="11" height="11" rx="2" 
            fill="#30a14e" opacity="0.9"/>
    <rect x="134" y="45" width="11" height="11" rx="2" 
            fill="#40c463" opacity="0.8"/>
    <rect x="134" y="87" width="11" height="11" rx="2" 
            fill="#30a14e" opacity="0.9"/>
    <rect x="134" y="101" width="11" height="11" rx="2" 
            fill="#30a14e" opacity="0.9"/>
    <rect x="134" y="129" width="11" height="11" rx="2" 
            fill="#30a14e" opacity="0.9"/>
    <rect x="162" y="59" width="11" height="11" rx="2" 
            fill="#9be9a8" opacity="0.7"/>
    <rect x="162" y="87" width="11" height="11" rx="2" 
            fill="#30a14e" opacity="0.9"/>
    <rect x="162" y="115" width="11" height="11" rx="2" 
            fill="#9be9a8" opacity="0.7"/>
    <rect x="162" y="129" width="11" height="11" rx="2" 
            fill="#9be9a8" opacity="0.7"/>
    <rect x="176" y="59" width="11" height="11" rx="2" 
            fill="#9be9a8" opacity="0.7"/>
    <rect x="176" y="73" width="11" height="11" rx="2" 
            fill="#30a14e" opacity="0.9"/>
    <rect x="176" y="87" width="11" height="11" rx="2" 
            fill="#40c463" opacity="1"/>
    <rect x="176" y="101" width="11" height="11" rx="2" 
            fill="#40c463" opacity="0.8"/>
    <rect x="176" y="129" width="11" height="11" rx="2" 
            fill="#30a14e" opacity="0.9"/>
    <rect x="190" y="59" width="11" height="11" rx="2" 
            fill="#30a14e" opacity="0.9"/>
    <rect x="190" y="73" width="11" height="11" rx="2" 
            fill="#40c463" opacity="1"/>
    <rect x="190" y="87" width="11" height="11" rx="2" 
            fill="#40c463" opacity="0.8"/>
    <rect x="190" y="115" width="11" height="11" rx="2" 
            fill="#40c463" opacity="1"/>
    <rect x="190" y="129" width="11" height="11" rx="2" 
            fill="#9be9a8" opacity="0.7"/>
    <rect x="204" y="45" width="11" height="11" rx="2" 
            fill="#9be9a8" opacity="0.7"/>
    <rect x="204" y="59" width="11" height="11" rx="2" 
            fill="#40c463" opacity="1"/>
    <rect x="204" y="73" width="11" height="11" rx="2" 
            fill="#9be9a8" opacity="0.7"/>
    <rect x="204" y="87" width="11" height="11" rx="2" 
            fill="#40c463" opacity="1"/>
    <rect x="204" y="101" width="11" height="11" rx="2" 
            fill="#30a14e" opacity="0.9"/>
    <rect x="218" y="45" width="11" height="11" rx="2" 
            fill="#40c463" opacity="0.8"/>
    <rect x="218" y="73" width="11" height="11" rx="2" 
            fill="#9be9a8" opacity="0.7"/>
    <rect x="218" y="87" width="11" height="11" rx="2" 
            fill="#40c463" opacity="1"/>
    <rect x="218" y="101" width="11" height="11" rx="2" 
            fill="#40c463" opacity="0.8"/>
    <rect x="218" y="129" width="11" height="11" rx="2" 
            fill="#40c463" opacity="1"/>
    <rect x="232" y="59" width="11" height="11" rx="2" 
            fill="#40c463" opacity="1"/>
    <rect x="232" y="73" width="11" height="11" rx="2" 
            fill="#9be9a8" opacity="0.7"/>
    <rect x="232" y="87" width="11" height="11" rx="2" 
            fill="#40c463" opacity="1"/>
    <rect x="232" y="101" width="11" height="11" rx="2" 
            fill="#40c463" opacity="0.8"/>
    <rect x="246" y="73" width="11" height="11" rx="2" 
            fill="#40c463" opacity="0.8"/>
    <rect x="246" y="87" width="11" height="11" rx="2" 
            fill="#30a14e" opacity="0.9"/>
    <rect x="246" y="101" width="11" height="11" rx="2" 
            fill="#40c463" opacity="0.8"/>
    <rect x="260" y="45" width="11" height="11" rx="2" 
            fill="#40c463" opacity="1"/>
    <rect x="260" y="73" width="11" height="11" rx="2" 
            fill="#9be9a8" opacity="0.7"/>
    <rect x="260" y="87" width="11" height="11" rx="2" 
            fill="#40c463" opacity="1"/>
    <rect x="260" y="101" width="11" height="11" rx="2" 
            fill="#40c463" opacity="0.8"/>
    <rect x="274" y="45" width="11" height="11" rx="2" 
            fill="#30a14e" opacity="0.9"/>
    <rect x="274" y="59" width="11" height="11" rx="2" 
            fill="#40c463" opacity="1"/>
    <rect x="274" y="73" width="11" height="11" rx="2" 
            fill="#9be9a8" opacity="0.7"/>
    <rect x="274" y="87" width="11" height="11" rx="2" 
            fill="#9be9a8" opacity="0.7"/>
    <rect x="274" y="101" width="11" height="11" rx="2" 
            fill="#30a14e" opacity="0.9"/>
    <rect x="288" y="45" width="11" height="11" rx="2" 
            fill="#30a14e" opacity="0.9"/>
    <rect x="288" y="87" width="11" height="11" rx="2" 
            fill="#40c463" opacity="1"/>
    <rect x="288" y="101" width="11" height="11" rx="2" 
            fill="#40c463" opacity="1"/>
    <rect x="288" y="115" width="11" height="11" rx="2" 
            fill="#40c463" opacity="0.8"/>
    <rect x="302" y="45" width="11" height="11" rx="2" 
            fill="#40c463" opacity="1"/>
    <rect x="302" y="59" width="11" height="11" rx="2" 
            fill="#30a14e" opacity="0.9"/>
    <rect x="302" y="73" width="11" height="11" rx="2" 
            fill="#40c463" opacity="1"/>
    <rect x="302" y="87" width="11" height="11" rx="2" 
            fill="#40c463" opacity="0.8"/>
    <rect x="302" y="129" width="11" height="11" rx="2" 
            fill="#9be9a8" opacity="0.7"/>
    <rect x="316" y="45" width="11" height="11" rx="2" 
            fill="#40c463" opacity="0.8"/>
    <rect x="316" y="87" width="11" height="11" rx="2" 
            fill="#30a14e" opacity="0.9"/>
    <rect x="316" y="115" width="11" height="11" rx="2" 
            fill="#9be9a8" opacity="0.7"/>
    <rect x="330" y="45" width="11" height="11" rx="2" 
            fill="#30a14e" opacity="0.9"/>
    <rect x="330" y="73" width="11" height="11" rx="2" 
            fill="#40c463" opacity="1"/>
    <rect x="330" y="101" width="11" height="11" rx="2" 
            fill="#9be9a8" opacity="0.7"/>
    <rect x="330" y="129" width="11" height="11" rx="2" 
            fill="#40c463" opacity="1"/>
    <rect x="344" y="73" width="11" height="11" rx="2" 
            fill="#40c463" opacity="0.8"/>
    <rect x="344" y="101" width="11" height="11" rx="2" 
            fill="#40c463" opacity="0.8"/>
    <rect x="344" y="115" width="11" height="11" rx="2" 
            fill="#30a14e" opacity="0.9"/>
    <rect x="344" y="129" width="11" height="11" rx="2" 
            fill="#30a14e" opacity="0.9"/>
    <rect x="358" y="45" width="11" height="11" rx="2" 
            fill="#40c463" opacity="0.8"/>
    <rect x="358" y="73" width="11" height="11" rx="2" 
            fill="#30a14e" opacity="0.9"/>
    <rect x="358" y="87" width="11" height="11" rx="2" 
            fill="#9be9a8" opacity="0.7"/>
    <rect x="358" y="101" width="11" height="11" rx="2" 
            fill="#9be9a8" opacity="0.7"/>
    <rect x="372" y="45" width="11" height="11" rx="2" 
            fill="#40c463" opacity="1"/>
    <rect x="372" y="59" width="11" height="11" rx="2" 
            fill="#40c463" opacity="0.8"/>
    <rect x="372" y="73" width="11" height="11" rx="2" 
            fill="#40c463" opacity="1"/>
    <rect x="372" y="87" width="11" height="11" rx="2" 
            fill="#40c463" opacity="0.8"/>
    <rect x="372" y="101" width="11" height="11" rx="2" 
            fill="#40c463" opacity="0.8"/>
    <rect x="372" y="129" width="11" height="11" rx="2" 
            fill="#30a14e" opacity="0.9"/>
    <rect x="386" y="45" width="11" height="11" rx="2" 
            fill="#40c463" opacity="1"/>
    <rect x="386" y="59" width="11" height="11" rx="2" 
            fill="#40c463" opacity="1"/>
    <rect x="386" y="101" width="11" height="11" rx="2" 
            fill="#40c463" opacity="1"/>
    <rect x="386" y="115" width="11" height="11" rx="2" 
            fill="#30a14e" opacity="0.9"/>
    <rect x="400" y="45" width="11" height="11" rx="2" 
            fill="#9be9a8" opacity="0.7"/>
    <rect x="400" y="59" width="11" height="11" rx="2" 
            fill="#40c463" opacity="0.8"/>
    <rect x="400" y="73" width="11" height="11" rx="2" 
            fill="#40c463" opacity="1"/>
    <rect x="400" y="101" width="11" height="11" rx="2" 
            fill="#40c463" opacity="1"/>
    <rect x="400" y="129" width="11" height="11" rx="2" 
            fill="#9be9a8" opacity="0.7"/>
    <rect x="414" y="59" width="11" height="11" rx="2" 
            fill="#30a14e" opacity="0.9"/>
    <rect x="414" y="73" width="11" height="11" rx="2" 
            fill="#9be9a8" opacity="0.7"/>
    <rect x="414" y="101" width="11" height="11" rx="2" 
            fill="#40c463" opacity="0.8"/>
    <rect x="414" y="115" width="11" height="11" rx="2" 
            fill="#40c463" opacity="0.8"/>
    <rect x="414" y="129" width="11" height="11" rx="2" 
            fill="#40c463" opacity="0.8"/>
    <rect x="428" y="45" width="11" height="11" rx="2" 
            fill="#40c463" opacity="0.8"/>
    <rect x="428" y="59" width="11" height="11" rx="2" 
            fill="#9be9a8" opacity="0.7"/>
    <rect x="428" y="73" width="11" height="11" rx="2" 
            fill="#9be9a8" opacity="0.7"/>
    <rect x="428" y="87" width="11" height="11" rx="2" 
            fill="#30a14e" opacity="0.9"/>
    <rect x="428" y="101" width="11" height="11" rx="2" 
            fill="#30a14e" opacity="0.9"/>
    <rect x="428" y="115" width="11" height="11" rx="2" 
            fill="#9be9a8" opacity="0.7"/>
    <rect x="442" y="59" width="11" height="11" rx="2" 
            fill="#30a14e" opacity="0.9"/>
    <rect x="442" y="73" width="11" height="11" rx="2" 
            fill="#30a14e" opacity="0.9"/>
    <rect x="442" y="87" width="11" height="11" rx="2" 
            fill="#30a14e" opacity="0.9"/>
    <rect x="442" y="115" width="11" height="11" rx="2" 
            fill="#40c463" opacity="0.8"/>
    <rect x="456" y="45" width="11" height="11" rx="2" 
            fill="#40c463" opacity="0.8"/>
    <rect x="456" y="73" width="11" height="11" rx="2" 
            fill="#9be9a8" opacity="0.7"/>
    <rect x="456" y="101" width="11" height="11" rx="2" 
            fill="#40c463" opacity="0.8"/>
    <rect x="456" y="115" width="11" height="11" rx="2" 
            fill="#40c463" opacity="1"/>
    <rect x="470" y="59" width="11" height="11" rx="2" 
            fill="#30a14e" opacity="0.9"/>
    <rect x="470" y="73" width="11" height="11" rx="2" 
            fill="#9be9a8" opacity="0.7"/>
    <rect x="470" y="101" width="11" height="11" rx="2" 
            fill="#30a14e" opacity="0.9"/>
    <rect x="470" y="115" width="11" height="11" rx="2" 
            fill="#9be9a8" opacity="0.7"/>
    <rect x="470" y="129" width="11" height="11" rx="2" 
            fill="#30a14e" opacity="0.9"/>
    <rect x="484" y="59" width="11" height="11" rx="2" 
            fill="#9be9a8" opacity="0.7"/>
    <rect x="484" y="101" width="11" height="11" rx="2" 
            fill="#40c463" opacity="1"/>
    <rect x="484" y="115" width="11" height="11" rx="2" 
            fill="#40c463" opacity="1"/>
    <rect x="498" y="45" width="11" height="11" rx="2" 
            fill="#9be9a8" opacity="0.7"/>
    <rect x="498" y="59" width="11" height="11" rx="2" 
            fill="#40c463" opacity="1"/>
    <rect x="498" y="101" width="11" height="11" rx="2" 
            fill="#9be9a8" opacity="0.7"/>
    <rect x="498" y="115" width="11" height="11" rx="2" 
            fill="#40c463" opacity="1"/>
    <rect x="512" y="45" width="11" height="11" rx="2" 
            fill="#9be9a8" opacity="0.7"/>
    <rect x="512" y="59" width="11" height="11" rx="2" 
            fill="#40c463" opacity="1"/>
    <rect x="512" y="73" width="11" height="11" rx="2" 
            fill="#9be9a8" opacity="0.7"/>
    <rect x="512" y="87" width="11" height="11" rx="2" 
            fill="#30a14e" opacity="0.9"/>
    <rect x="512" y="129" width="11" height="11" rx="2" 
            fill="#40c463" opacity="0.8"/>
    <rect x="526" y="45" width="11" height="11" rx="2" 
            fill="#30a14e" opacity="0.9"/>
    <rect x="526" y="59" width="11" height="11" rx="2" 
            fill="#40c463" opacity="0.8"/>
    <rect x="526" y="73" width="11" height="11" rx="2" 
            fill="#40c463" opacity="1"/>
    <rect x="526" y="101" width="11" height="11" rx="2" 
            fill="#9be9a8" opacity="0.7"/>
    <rect x="526" y="115" width="11" height="11" rx="2" 
            fill="#40c463" opacity="1"/>
    <rect x="540" y="59" width="11" height="11" rx="2" 
            fill="#40c463" opacity="0.8"/>
    <rect x="540" y="73" width="11" height="11" rx="2" 
            fill="#40c463" opacity="0.8"/>
    <rect x="540" y="87" width="11" height="11" rx="2" 
            fill="#9be9a8" opacity="0.7"/>
    <rect x="540" y="101" width="11" height="11" rx="2" 
            fill="#9be9a8" opacity="0.7"/>
    <rect x="540" y="115" width="11" height="11" rx="2" 
            fill="#40c463" opacity="0.8"/>
    <rect x="540" y="129" width="11" height="11" rx="2" 
            fill="#30a14e" opacity="0.9"/>
    <rect x="554" y="59" width="11" height="11" rx="2" 
            fill="#30a14e" opacity="0.9"/>
    <rect x="554" y="73" width="11" height="11" rx="2" 
            fill="#9be9a8" opacity="0.7"/>
    <rect x="554" y="101" width="11" height="11" rx="2" 
            fill="#40c463" opacity="0.8"/>
    <rect x="554" y="115" width="11" height="11" rx="2" 
            fill="#30a14e" opacity="0.9"/>
    <rect x="554" y="129" width="11" height="11" rx="2" 
            fill="#30a14e" opacity="0.9"/>
    <rect x="568" y="45" width="11" height="11" rx="2" 
            fill="#30a14e" opacity="0.9"/>
    <rect x="568" y="59" width="11" height="11" rx="2" 
            fill="#40c463" opacity="1"/>
    <rect x="568" y="87" width="11" height="11" rx="2" 
            fill="#40c463" opacity="0.8"/>
    <rect x="568" y="101" width="11" height="11" rx="2" 
            fill="#40c463" opacity="1"/>
    <rect x="568" y="115" width="11" height="11" rx="2" 
            fill="#30a14e" opacity="0.9"/>
    <rect x="568" y="129" width="11" height="11" rx="2" 
            fill="#40c463" opacity="1"/>
    <rect x="582" y="45" width="11" height="11" rx="2" 
            fill="#40c463" opacity="1"/>
    <rect x="582" y="59" width="11" height="11" rx="2" 
            fill="#30a14e" opacity="0.9"/>
    <rect x="582" y="73" width="11" height="11" rx="2" 
            fill="#30a14e" opacity="0.9"/>
    <rect x="582" y="87" width="11" height="11" rx="2" 
            fill="#30a14e" opacity="0.9"/>
    <rect x="582" y="115" width="11" height="11" rx="2" 
            fill="#40c463" opacity="0.8"/>
    <rect x="596" y="59" width="11" height="11" rx="2" 
            fill="#40c463" opacity="0.8"/>
    <rect x="596" y="73" width="11" height="11" rx="2" 
            fill="#30a14e" opacity="0.9"/>
    <rect x="596" y="87" width="11" height="11" rx="2" 
            fill="#30a14e" opacity="0.9"/>
    <rect x="596" y="101" width="11" height="11" rx="2" 
            fill="#9be9a8" opacity="0.7"/>
    <rect x="596" y="115" width="11" height="11" rx="2" 
            fill="#40c463" opacity="1"/>
    <rect x="596" y="129" width="11" height="11" rx="2" 
            fill="#9be9a8" opacity="0.7"/>
    <rect x="610" y="45" width="11" height="11" rx="2" 
            fill="#30a14e" opacity="0.9"/>
    <rect x="610" y="73" width="11" height="11" rx="2" 
            fill="#40c463" opacity="1"/>
    <rect x="610" y="87" width="11" height="11" rx="2" 
            fill="#40c463" opacity="0.8"/>
    <rect x="610" y="101" width="11" height="11" rx="2" 
            fill="#40c463" opacity="0.8"/>
    <rect x="610" y="129" width="11" height="11" rx="2" 
            fill="#40c463" opacity="1"/>
    <rect x="624" y="45" width="11" height="11" rx="2" 
            fill="#30a14e" opacity="0.9"/>
    <rect x="624" y="59" width="11" height="11" rx="2" 
            fill="#9be9a8" opacity="0.7"/>
    <rect x="624" y="73" width="11" height="11" rx="2" 
            fill="#40c463" opacity="1"/>
    <rect x="624" y="87" width="11" height="11" rx="2" 
            fill="#40c463" opacity="1"/>
    <rect x="624" y="101" width="11" height="11" rx="2" 
            fill="#9be9a8" opacity="0.7"/>
    <rect x="638" y="45" width="11" height="11" rx="2" 
            fill="#9be9a8" opacity="0.7"/>
    <rect x="638" y="59" width="11" height="11" rx="2" 
            fill="#40c463" opacity="1"/>
    <rect x="638" y="73" width="11" height="11" rx="2" 
            fill="#40c463" opacity="1"/>
    <rect x="638" y="87" width="11" height="11" rx="2" 
            fill="#40c463" opacity="1"/>
    <rect x="638" y="115" width="11" height="11" rx="2" 
            fill="#40c463" opacity="1"/>
    <rect x="638" y="129" width="11" height="11" rx="2" 
            fill="#40c463" opacity="0.8"/>
    <rect x="652" y="59" width="11" height="11" rx="2" 
            fill="#40c463" opacity="1"/>
    <rect x="652" y="87" width="11" height="11" rx="2" 
            fill="#40c463" opacity="0.8"/>
    <rect x="652" y="101" width="11" height="11" rx="2" 
            fill="#30a14e" opacity="0.9"/>
    <rect x="652" y="115" width="11" height="11" rx="2" 
            fill="#9be9a8" opacity="0.7"/>
    <rect x="652" y="129" width="11" height="11" rx="2" 
            fill="#40c463" opacity="1"/>
    <rect x="666" y="45" width="11" height="11" rx="2" 
            fill="#30a14e" opacity="0.9"/>
    <rect x="666" y="73" width="11" height="11" rx="2" 
            fill="#9be9a8" opacity="0.7"/>
    <rect x="666" y="87" width="11" height="11" rx="2" 
            fill="#40c463" opacity="0.8"/>
    <rect x="666" y="115" width="11" height="11" rx="2" 
            fill="#9be9a8" opacity="0.7"/>
    <rect x="666" y="129" width="11" height="11" rx="2" 
            fill="#40c463" opacity="1"/>
    <rect x="680" y="45" width="11" height="11" rx="2" 
            fill="#9be9a8" opacity="0.7"/>
    <rect x="680" y="59" width="11" height="11" rx="2" 
            fill="#40c463" opacity="1"/>
    <rect x="680" y="87" width="11" height="11" rx="2" 
            fill="#40c463" opacity="1"/>
    <rect x="680" y="115" width="11" height="11" rx="2" 
            fill="#30a14e" opacity="0.9"/>
    <rect x="680" y="129" width="11" height="11" rx="2" 
            fill="#40c463" opacity="0.8"/>
    <rect x="694" y="59" width="11" height="11" rx="2" 
            fill="#9be9a8" opacity="0.7"/>
    <rect x="694" y="73" width="11" height="11" rx="2" 
            fill="#40c463" opacity="0.8"/>
    <rect x="694" y="87" width="11" height="11" rx="2" 
            fill="#9be9a8" opacity="0.7"/>
    <rect x="694" y="101" width="11" height="11" rx="2" 
            fill="#40c463" opacity="1"/>
    <rect x="694" y="115" width="11" height="11" rx="2" 
            fill="#30a14e" opacity="0.9"/>
    <rect x="694" y="129" width="11" height="11" rx="2" 
            fill="#40c463" opacity="0.8"/>
    <rect x="708" y="45" width="11" height="11" rx="2" 
            fill="#9be9a8" opacity="0.7"/>
    <rect x="708" y="59" width="11" height="11" rx="2" 
            fill="#40c463" opacity="0.8"/>
    <rect x="708" y="73" width="11" height="11" rx="2" 
            fill="#30a14e" opacity="0.9"/>
    <rect x="708" y="115" width="11" height="11" rx="2" 
            fill="#30a14e" opacity="0.9"/>
    <rect x="708" y="129" width="11" height="11" rx="2" 
            fill="#9be9a8" opacity="0.7"/>
    <rect x="722" y="45" width="11" height="11" rx="2" 
            fill="#40c463" opacity="1"/>
    <rect x="722" y="73" width="11" height="11" rx="2" 
            fill="#9be9a8" opacity="0.7"/>
    <rect x="722" y="87" width="11" height="11" rx="2" 
            fill="#40c463" opacity="1"/>
    <rect x="722" y="101" width="11" height="11" rx="2" 
            fill="#9be9a8" opacity="0.7"/>
    <rect x="722" y="115" width="11" height="11" rx="2" 
            fill="#9be9a8" opacity="0.7"/>
    <rect x="736" y="45" width="11" height="11" rx="2" 
            fill="#9be9a8" opacity="0.7"/>
    <rect x="736" y="59" width="11" height="11" rx="2" 
            fill="#30a14e" opacity="0.9"/>
    <rect x="736" y="73" width="11" height="11" rx="2" 
            fill="#30a14e" opacity="0.9"/>
    <rect x="750" y="59" width="11" height="11" rx="2" 
            fill="#40c463" opacity="0.8"/>
    <rect x="750" y="73" width="11" height="11" rx="2" 
            fill="#9be9a8" opacity="0.7"/>
    <rect x="750" y="87" width="11" height="11" rx="2" 
            fill="#40c463" opacity="1"/>
    <rect x="750" y="115" width="11" height="11" rx="2" 
            fill="#40c463" opacity="0.8"/>
    <rect x="750" y="129" width="11" height="11" rx="2" 
            fill="#40c463" opacity="0.8"/>
    <rect x="764" y="59" width="11" height="11" rx="2" 
            fill="#9be9a8" opacity="0.7"/>
    <rect x="764" y="73" width="11" height="11" rx="2" 
            fill="#40c463" opacity="1"/>
    <rect x="764" y="101" width="11" height="11" rx="2" 
            fill="#40c463" opacity="1"/>
    <rect x="764" y="115" width="11" height="11" rx="2" 
            fill="#40c463" opacity="0.8"/>
  </g>
  
  <!-- Power Pellets -->
  <g class="power-pellets" filter="url(#powerGlow)">
    <circle class="power-pellet" cx="60" cy="55" r="6" fill="#fb8f44" 
              style="animation-delay: 0s" transform-origin="60px 55px"/>
    <circle class="power-pellet" cx="768" cy="55" r="6" fill="#fb8f44" 
              style="animation-delay: 0.25s" transform-origin="768px 55px"/>
    <circle class="power-pellet" cx="60" cy="133" r="6" fill="#fb8f44" 
              style="animation-delay: 0.5s" transform-origin="60px 133px"/>
    <circle class="power-pellet" cx="768" cy="133" r="6" fill="#fb8f44" 
              style="animation-delay: 0.75s" transform-origin="768px 133px"/>
  </g>
  
  <!-- Pac-Man -->
  <g class="pacman-group" filter="url(#pacmanGlow)" transform="translate(304.79999999999995, 94)">
    <g class="pacman-body" transform-origin="0 0">
      <!-- Pac-Man body with mouth -->
      <circle r="14" fill="#ffcc00"/>
      <polygon points="0,0 15,-8 15,8" fill="#ffffff"/>
      <!-- Eye -->
      <circle cx="-2" cy="-6" r="2.5" fill="#000"/>
    </g>
  </g>
  
  <!-- Ghosts -->
  
  <g class="ghost-blinky" filter="url(#ghostGlow)" transform="translate(450.40000000000003, 60)" transform-origin="450.40000000000003px 60px">
    <!-- Ghost body -->
    <path d="M -10,5 L -10,-5 Q -10,-12 0,-12 Q 10,-12 10,-5 L 10,5 
             L 7,2 L 4,5 L 1,2 L -2,5 L -5,2 L -8,5 Z" 
          fill="#ff0000"/>
    <!-- Eyes -->
    <g class="ghost-eyes">
      <ellipse cx="-4" cy="-4" rx="3.5" ry="4" fill="#ffffff"/>
      <ellipse cx="4" cy="-4" rx="3.5" ry="4" fill="#ffffff"/>
      <circle cx="-3" cy="-3" r="2" fill="#0000ff"/>
      <circle cx="5" cy="-3" r="2" fill="#0000ff"/>
    </g>
  </g>
  
  <g class="ghost-pinky" filter="url(#ghostGlow)" transform="translate(596, 128)" transform-origin="596px 128px">
    <!-- Ghost body -->
    <path d="M -10,5 L -10,-5 Q -10,-12 0,-12 Q 10,-12 10,-5 L 10,5 
             L 7,2 L 4,5 L 1,2 L -2,5 L -5,2 L -8,5 Z" 
          fill="#ffb8ff"/>
    <!-- Eyes -->
    <g class="ghost-eyes">
      <ellipse cx="-4" cy="-4" rx="3.5" ry="4" fill="#ffffff"/>
      <ellipse cx="4" cy="-4" rx="3.5" ry="4" fill="#ffffff"/>
      <circle cx="-3" cy="-3" r="2" fill="#0000ff"/>
      <circle cx="5" cy="-3" r="2" fill="#0000ff"/>
    </g>
  </g>
  
  <g class="ghost-inky" filter="url(#ghostGlow)" transform="translate(232, 113.6)" transform-origin="232px 113.6px">
    <!-- Ghost body -->
    <path d="M -10,5 L -10,-5 Q -10,-12 0,-12 Q 10,-12 10,-5 L 10,5 
             L 7,2 L 4,5 L 1,2 L -2,5 L -5,2 L -8,5 Z" 
          fill="#00ffff"/>
    <!-- Eyes -->
    <g class="ghost-eyes">
      <ellipse cx="-4" cy="-4" rx="3.5" ry="4" fill="#ffffff"/>
      <ellipse cx="4" cy="-4" rx="3.5" ry="4" fill="#ffffff"/>
      <circle cx="-3" cy="-3" r="2" fill="#0000ff"/>
      <circle cx="5" cy="-3" r="2" fill="#0000ff"/>
    </g>
  </g>
  
  <g class="ghost-clyde" filter="url(#ghostGlow)" transform="translate(668.8, 84.2)" transform-origin="668.8px 84.2px">
    <!-- Ghost body -->
    <path d="M -10,5 L -10,-5 Q -10,-12 0,-12 Q 10,-12 10,-5 L 10,5 
             L 7,2 L 4,5 L 1,2 L -2,5 L -5,2 L -8,5 Z" 
          fill="#ffb852"/>
    <!-- Eyes -->
    <g class="ghost-eyes">
      <ellipse cx="-4" cy="-4" rx="3.5" ry="4" fill="#ffffff"/>
      <ellipse cx="4" cy="-4" rx="3.5" ry="4" fill="#ffffff"/>
      <circle cx="-3" cy="-3" r="2" fill="#0000ff"/>
      <circle cx="5" cy="-3" r="2" fill="#0000ff"/>
    </g>
  </g>
  
  <!-- Title -->
  <text x="425" y="172" text-anchor="middle" fill="#0969da" 
        font-family="monospace" font-size="11" font-weight="bold">
    🕹️ PAC-MAN ・ CONTRIBUTION CHASE 👻
  </text>
</svg>